<?xml version="1.0" encoding="utf-8"?>
<!-- Generator: Adobe Illustrator 25.0.0, SVG Export Plug-In . SVG Version: 6.00 Build 0)  -->
<svg version="1.1" id="Layer_1" xmlns="http://www.w3.org/2000/svg" xmlns:xlink="http://www.w3.org/1999/xlink" x="0px" y="0px"
	 viewBox="0 0 50 50" style="enable-background:new 0 0 50 50;" xml:space="preserve">
<style type="text/css">
	.st0{fill:#FFFFFF;stroke:#000000;stroke-width:2;stroke-miterlimit:10;}
	.st1{display:none;fill:#FFE44A;}
	.st2{display:none;fill:#2667D0;}
	.st3{display:none;fill:#A694FF;}
	.st4{fill:none;stroke:#000000;stroke-width:2;stroke-miterlimit:10;}
	.st5{fill:#DA5463;}
	.st6{display:none;fill:#DA5463;}
	.st7{fill:#26675E;}
</style>
<line class="st0" x1="6" y1="16" x2="20" y2="16"/>
<polygon class="st1" points="22,30 23,27 22,23 21,22 20,25 20,29 20,31 "/>
<polygon class="st2" points="33,20 31,28 33,31 35,29 34,20 "/>
<path class="st3" d="M13,20c0,0-13,4-7,10C12.52,36.52,13,20,13,20z"/>
<g>
	<path class="st4" d="M13.26,16.5c0,0,0.39,9.06-1.46,14.6c-1.46,4.38-7.3,4.56-7.3-1.46c0-5.84,7.66-8.1,13.5-6.64s6.44,11,3,11
		c-4,0,0-18,7-18c6,0,9,18,5,18c-4.78,0,0-18,6-18c4,0,7,6,4,18"/>
</g>
<path class="st5" d="M8,29"/>
<line class="st6" x1="20" y1="22" x2="20" y2="30"/>
<path class="st7" d="M39,11"/>
</svg>
